<svg height="60" viewBox="0 0 120 60" width="120" xmlns="http://www.w3.org/2000/svg"><path d="m.3 89 17.8-21.3c10.9 8.3 23.3 11.8 35 11.8 6 0 8.6-1.6 8.6-4.3v-.3c0-2.9-3.1-4.4-13.8-6.6-22.4-4.6-42.1-11-42.1-32.1v-.3c0-19 14.8-33.7 42.4-33.7 19.3 0 33.5 4.6 45.1 13.7l-16.4 22.6c-9.4-6.9-20.7-9.8-30-9.8-5 0-7.3 1.7-7.3 4.1v.3c0 2.7 2.7 4.4 13.3 6.4 25.6 4.7 42.7 12.1 42.7 32.3v.2c0 21-17.3 33.8-44.1 33.8-20.3.1-38.5-5.6-51.2-16.8zm128.6-56.6h-29.4v-28.3h92.2v28.3h-29.4v71.6h-33.4zm145.7 37.6c12.1-5.9 19.7-16 19.7-30.5v-.3c0-10.3-3.1-17.7-9.1-23.7-7-7-18.3-11.4-36-11.4h-48.8v99.9h33.4v-28.5h7.1l18.8 28.5h38.1zm-13.6-28.1c0 6.1-4.9 9.7-12.8 9.7h-14.4v-19.5h14.6c7.7 0 12.7 3.1 12.7 9.6v.2zm84.4-42-53.9 104.1h35.8l18.1-36.4 18.1 36.4h35.8zm158.4 0-53.9 104.1h35.8l18.1-36.4 18.1 36.4h35.8zm-79.2 108.2 54-104.1h-35.8l-18.1 36.4-18.2-36.4h-35.8z" fill="#fc6100" transform="matrix(.16703659 0 0 .16703659 13.396791 20.980024)"/></svg>